<?xml version="1.0" standalone="no"?>
<!DOCTYPE svg PUBLIC "-//W3C//DTD SVG 20010904//EN"
 "http://www.w3.org/TR/2001/REC-SVG-20010904/DTD/svg10.dtd">
<svg version="1.0" xmlns="http://www.w3.org/2000/svg"
 width="540.000000pt" height="292.000000pt" viewBox="0 0 540.000000 292.000000"
 preserveAspectRatio="xMidYMid meet">

<g transform="translate(0.000000,292.000000) scale(0.100000,-0.100000)"
fill="#000000" stroke="none">
<path d="M4505 2704 c-79 -14 -139 -31 -155 -42 -14 -10 -39 -45 -57 -77 -34
-64 -30 -62 -195 -105 -136 -36 -298 -59 -493 -70 -215 -12 -279 -25 -403 -76
-132 -55 -257 -67 -604 -58 -359 9 -547 -11 -838 -88 -113 -29 -117 -30 -265
-21 -210 11 -314 7 -435 -17 -145 -30 -372 -38 -462 -16 -90 21 -193 74 -296
152 -80 62 -105 73 -116 56 -8 -14 38 -75 85 -113 55 -45 248 -155 297 -169
74 -22 274 -24 477 -5 180 17 201 17 282 3 95 -17 163 -41 163 -57 0 -6 -16
-28 -35 -50 -48 -52 -59 -83 -94 -257 -84 -419 -205 -594 -469 -684 l-104 -35
-35 -90 c-19 -49 -47 -124 -62 -165 -29 -78 -101 -227 -131 -270 -26 -37 -34
-169 -14 -220 17 -43 23 -46 105 -55 42 -5 64 -3 88 9 29 16 31 19 31 75 0 50
-4 65 -27 91 l-26 32 18 71 c28 112 72 211 112 251 20 20 40 36 44 36 4 0 23
16 41 35 28 29 54 41 168 76 74 23 156 52 181 64 25 13 70 28 98 34 29 6 62
16 74 23 44 23 186 145 299 257 98 96 118 112 124 96 16 -42 -59 -224 -118
-285 -19 -20 -70 -64 -114 -99 -108 -88 -174 -152 -174 -171 0 -9 11 -31 25
-50 14 -19 25 -37 25 -42 0 -4 33 -68 74 -140 41 -73 77 -150 81 -171 9 -46
43 -98 75 -114 26 -13 148 -17 188 -7 20 6 22 11 17 38 -15 77 -30 93 -105
110 -49 12 -160 197 -160 267 0 56 24 107 60 127 237 130 495 403 563 591 11
33 22 97 26 156 l6 100 55 -1 c36 -1 71 -9 100 -24 49 -25 187 -116 209 -138
8 -7 44 -37 80 -67 110 -88 190 -120 366 -145 134 -19 125 -14 125 -66 0 -150
-61 -442 -115 -546 -19 -39 -22 -50 -11 -61 20 -19 30 -169 15 -226 -8 -32 -9
-63 -3 -97 12 -63 32 -73 169 -81 92 -5 105 -4 111 11 14 38 -37 108 -88 120
-44 10 -58 32 -58 92 0 68 25 182 55 249 12 28 30 75 39 105 9 30 28 87 42
126 l25 72 30 -15 c30 -15 45 -15 201 4 51 6 77 16 113 42 26 19 72 39 106 47
71 17 116 38 140 68 51 62 26 110 -97 181 -48 27 -100 66 -116 86 l-29 35 26
45 c13 25 42 59 64 77 21 17 53 55 70 84 63 107 132 195 213 270 82 77 82 77
128 71 25 -3 64 -14 88 -24 55 -24 105 -33 132 -24 29 9 50 62 43 111 -5 38
-4 40 49 71 65 39 120 52 218 53 78 0 109 12 138 52 7 10 21 18 31 18 10 0 34
11 54 24 19 13 46 27 58 31 35 11 77 54 89 91 13 39 -3 219 -22 241 -13 15
-89 12 -204 -9 -79 -14 -114 -6 -114 27 0 14 -4 25 -9 25 -6 0 -16 12 -23 27
-10 21 -27 30 -78 45 -79 22 -92 22 -255 -8z m-820 -1510 c88 -42 96 -48 80
-60 -11 -9 -32 -11 -60 -8 -30 5 -46 2 -57 -10 -9 -9 -27 -16 -40 -16 -28 0
-71 -27 -63 -40 3 -5 -4 -14 -15 -20 -11 -6 -20 -17 -20 -24 0 -8 -7 -17 -16
-20 -12 -5 -14 -1 -9 17 15 52 88 227 95 227 4 0 51 -21 105 -46z"/>
</g>
</svg>
